<svg width="32" height="32" viewBox="0 0 32 32" fill="none" xmlns="http://www.w3.org/2000/svg">
<g clip-path="url(#clip0_429_4047)">
<path d="M21.9993 4C19.6793 4 17.4527 5.08 15.9993 6.78667C14.546 5.08 12.3193 4 9.99935 4C5.89268 4 2.66602 7.22667 2.66602 11.3333C2.66602 16.3733 7.19935 20.48 14.066 26.72L15.9993 28.4667L17.9327 26.7067C24.7993 20.48 29.3327 16.3733 29.3327 11.3333C29.3327 7.22667 26.106 4 21.9993 4ZM16.1327 24.7333L15.9993 24.8667L15.866 24.7333C9.51935 18.9867 5.33268 15.1867 5.33268 11.3333C5.33268 8.66667 7.33268 6.66667 9.99935 6.66667C12.0527 6.66667 14.0527 7.98667 14.7593 9.81333H17.2527C17.946 7.98667 19.946 6.66667 21.9993 6.66667C24.666 6.66667 26.666 8.66667 26.666 11.3333C26.666 15.1867 22.4794 18.9867 16.1327 24.7333Z" fill="#002F52"/>
</g>
<defs>
<clipPath id="clip0_429_4047">
<rect width="32" height="32" fill="white"/>
</clipPath>
</defs>
</svg>
