<svg width="32" height="32" viewBox="0 0 32 32" fill="none" xmlns="http://www.w3.org/2000/svg">
<g clip-path="url(#clip0_429_4049)">
<path d="M23.9997 8.00033H21.333C21.333 5.05366 18.9463 2.66699 15.9997 2.66699C13.053 2.66699 10.6663 5.05366 10.6663 8.00033H7.99967C6.53301 8.00033 5.33301 9.20033 5.33301 10.667V26.667C5.33301 28.1337 6.53301 29.3337 7.99967 29.3337H23.9997C25.4663 29.3337 26.6663 28.1337 26.6663 26.667V10.667C26.6663 9.20033 25.4663 8.00033 23.9997 8.00033ZM15.9997 5.33366C17.4663 5.33366 18.6663 6.53366 18.6663 8.00033H13.333C13.333 6.53366 14.533 5.33366 15.9997 5.33366ZM23.9997 26.667H7.99967V10.667H10.6663V13.3337C10.6663 14.067 11.2663 14.667 11.9997 14.667C12.733 14.667 13.333 14.067 13.333 13.3337V10.667H18.6663V13.3337C18.6663 14.067 19.2663 14.667 19.9997 14.667C20.733 14.667 21.333 14.067 21.333 13.3337V10.667H23.9997V26.667Z" fill="#002F52"/>
</g>
<defs>
<clipPath id="clip0_429_4049">
<rect width="32" height="32" fill="white"/>
</clipPath>
</defs>
</svg>
